<svg xmlns="http://www.w3.org/2000/svg" viewBox="0 0 1000 999.7">
  <g id="File">
    <g>
      <path d="M514,1011.85q-23.87,0-49-2.42c-30.39-2.35-62.93-8.66-98.82-19.23l-22-6.47-.16-1.1C198,932.06,80.66,810.7,34.86,661,24,626.11,17.21,591.57,14.6,558.43c-2.82-25.29-2.57-50.07-2.32-74,.08-8,.16-15.94.12-23.9-.23-25.23-.23-50.7-.08-76.16-.15-25.61-.15-51.71,0-77.82-.11-16.34-.09-33.13-.08-49.9V239.94c0-8.12,0-16.15,0-24.17,0-14.3,0-28.62.15-42.9-.19-14.14-.17-28.28-.15-42.42q0-11.19,0-22.41C10.2,79.7,20.8,52.3,40.81,34.46c23-20.8,56.7-27.85,85.6-17.78,12.23,4.13,22.14,10.44,30.88,16l4.6,2.91c28.76,18.7,55.75,38.17,79.76,56.09,10.29-6.72,20.61-12.85,31.09-18.5a477.66,477.66,0,0,1,45.46-22c15.67-6.54,31.91-12.41,49.87-18l3.66-1c16.56-4.56,33.69-9.28,52.11-11.93a401.11,401.11,0,0,1,61.56-7.18,452.33,452.33,0,0,1,76.5,1.75A414.55,414.55,0,0,1,619.17,24C747.67,51.09,862.22,130.89,933.5,243A490.75,490.75,0,0,1,1000,402.84c5.46,24.22,8.56,44.62,9.72,63.9a418.71,418.71,0,0,1,.72,80.39c-.86,20-3.07,37.52-6.71,53.28-1.78,15.87-5.92,30.76-9.58,44L992.85,649c-5.36,20.35-13.31,40.5-19.68,56.69l-.45,1.07c-5.82,13.48-12.54,27.39-21.78,45.13l-.65,1.18c-8.38,14.71-16.23,27.45-24,39-9.31,13.69-19.52,27.23-30.43,40.38-10.23,12-22.19,25.66-35.56,38.34a502.07,502.07,0,0,1-50.93,43.19A453.61,453.61,0,0,1,761,945.46c-20.35,12.11-40.93,21.41-58.42,28.9a547.3,547.3,0,0,1-66.11,22l-9.19,2.09c-16.06,3.62-32.66,7.37-50.51,8.88A422.74,422.74,0,0,1,514,1011.85ZM408.37,927.42A380,380,0,0,0,471.25,938q52.22,5,95.87-1.73l2.68-.31c13.2-1,27-4.15,41.66-7.45l7.25-1.62a473.12,473.12,0,0,0,56.19-18.68c14.83-6.37,32.9-14.5,49.8-24.59l1-.56a382.18,382.18,0,0,0,41.11-26.83A428.3,428.3,0,0,0,810.65,819c11.28-10.7,21.65-22.54,30.36-32.77,9.17-11.06,18-22.78,26-34.49,6.56-9.72,13.36-20.77,20.72-33.64,8.12-15.62,14-27.79,19-39.31,5.93-15.05,12.61-32.05,16.94-48.5l1.41-5.1c3.38-12.16,6.57-23.64,7.56-34.17l.87-5.15c2.92-12,4.68-25.9,5.36-42.57l.11-1.67a347.17,347.17,0,0,0-.61-68l-.15-1.87c-.88-15.52-3.48-32.47-8.19-53.36A419.67,419.67,0,0,0,873.07,281.5C812.86,186.81,712.27,116.74,604,94l-.94-.21a345.57,345.57,0,0,0-48.23-7.67,383.17,383.17,0,0,0-65.33-1.5l-1,0a331,331,0,0,0-51.74,6.09l-2,.33c-14.19,2-28.67,6-44,10.19l-1.87.51c-15.6,4.9-29.63,10-42.87,15.49a411.55,411.55,0,0,0-38.88,18.79,361,361,0,0,0-36.39,22.44,110.18,110.18,0,0,1-13.63,8.57l-20.25,10.82L218.55,164c-27.61-21-60.5-45.43-95.08-67.93l-4.64-2.92c-5.84-3.72-11.35-7.22-15.68-8.69-4.57-1.57-10.65-.11-14.47,3.32-3.62,3.24-5.49,9.27-4.92,15.52l.15,3.13c0,8,0,16.08,0,24.13,0,13.94,0,27.87.15,41.81v1c-.19,14.09-.17,28.21-.15,42.31,0,8.14,0,16.28,0,24.4v16.6c0,16.61,0,33.21.08,49.82-.15,26.28-.15,52.1,0,77.85-.15,25.53-.15,50.63.08,75.67,0,8.47,0,16.79-.12,25.11-.24,23-.46,44.76,1.94,65.89l.12,1.28c2.16,28,8,57.47,17.35,87.6,40.53,132.48,151.57,242.73,282.94,281Z" transform="translate(-12 -12.15)"/>
      <path d="M450.91,763.62h-1.64l-1.86-.07c-30.64-2-59-14.32-79.85-34.82L226.68,587.91c-15.23-15.06-26.55-35-32.59-57.67l-.52-2.24c-6.22-31.24-1.49-62.59,13.33-88.29,10.95-19.33,28.06-36.07,49.33-48.18l2.55-1.32a132.12,132.12,0,0,1,71.16-11.84l1.17.15c27.68,4.15,53,17,71.36,36.21l12.88,12.93q18.86,18.9,37.75,37.8c9.76-9.46,19.27-19,28.29-28.47l1.37-1.36c8.64-8.12,17.61-17.1,28.2-28.25l2.17-2.09c3.9-3.47,7.88-7.54,12.07-11.84,2.07-2.1,4.13-4.21,6.21-6.28,10.9-10.61,21.24-21.11,31.57-31.6,8.8-8.52,16.78-16.6,24.78-24.68l4.93-5c6.6-6.44,12.68-12.55,18.76-18.65,4.26-4.28,8.52-8.57,12.81-12.82a130.68,130.68,0,0,1,51.9-32.23l1.32-.41a131.24,131.24,0,0,1,76.76,1.55L756,264c31.37,12,57.4,36.8,71.4,68l1,2.41c10.69,29.28,11,60.73.82,88.56-7,18.68-18.81,35.75-35.25,51Q779.33,488.38,764.83,503l-10.22,10.19q-10.7,10.68-21.35,21.39l-10,10c-6.82,6.8-13.64,13.58-20.43,20.41L689.5,578.29q-9.88,9.87-19.74,19.77l-15.2,15.18q-11.25,11.21-22.47,22.47l-52.2,52.19q-9.74,9.69-19.41,19.41c-3.45,3.33-6.31,6.26-9.18,9.19-8.13,8.28-17.33,17.68-28.53,25.87l-2.1,1.42A130.77,130.77,0,0,1,450.91,763.62ZM263.63,512.87c2.8,9.84,7.48,18.19,13.56,24.21L418,677.82c8.07,7.91,20.14,13.11,33.07,14.13a59.34,59.34,0,0,0,30.42-8.18c6.11-4.66,12.21-10.87,18.64-17.44,3.32-3.38,6.64-6.77,10.05-10.06,6-6.06,12.56-12.59,19.1-19.11l52-52c7.5-7.56,15.08-15.11,22.66-22.67l15-15c6.56-6.61,13.22-13.26,19.88-19.92l13.2-13.2c6.83-6.86,13.74-13.74,20.65-20.63l9.73-9.7c7-7.12,14.32-14.38,21.59-21.64l10.06-10C724,442.45,734,432.46,744,422.54l.89-.85C753.24,414,759,406,762,398.07c4.14-11.36,4-24.87-.48-37.93a57.93,57.93,0,0,0-30.25-28.91,61.11,61.11,0,0,0-33.45-.7A59.47,59.47,0,0,0,675,345.06c-4.46,4.43-8.6,8.59-12.75,12.76-6.33,6.36-12.66,12.71-19.07,19l-4.45,4.51c-8.38,8.45-16.74,16.91-25.3,25.18-10.08,10.24-20.79,21.1-31.73,31.75-1.53,1.53-3.37,3.41-5.2,5.3-4.56,4.65-9.26,9.46-14.56,14.27-10.85,11.38-20.23,20.76-29.38,29.39-10.06,10.5-20.66,21.14-31.53,31.62l-1.24,1.28c-7,7.21-14.27,14.68-21.94,22L452.63,566l-24.69-24.45Q396.13,510,364.61,478.26l-13.83-13.9c-7.31-7.71-17.83-13-29.69-14.87a60.62,60.62,0,0,0-30.67,5.05c-9.44,5.62-16.79,12.76-21.31,20.72C263.1,485.7,261.17,499.27,263.63,512.87Z" transform="translate(-12 -12.15)"/>
    </g>
  </g>
</svg>
